<svg width="25" height="25" viewBox="0 0 25 25" fill="none" xmlns="http://www.w3.org/2000/svg">
        <path
          d="M16.7304 19.4359L12.5239 25L8.3652 19.4359L5.78394 21.5026L3.25048 18.1642L0 20.3103L1.19503 18.0449L2.19885 14.3091L2.39006 7.47322C2.7139 6.26558 2.9887 5.65846 3.63289 4.69119L5.21033 6.24117L4.63671 7.47322L4.73231 8.82449L5.73614 9.89756L6.68958 10.4622C7.33721 10.5803 7.73611 10.6395 8.4608 10.7322V11.845L4.97132 13.4745L7.69598 14.7462C8.74331 15.2609 9.24275 15.9539 10.086 17.409C11.2089 19.7173 11.6618 21.0961 12.5239 23.5295L13.0975 22.2577C13.7281 20.2967 14.1736 19.2008 15.1052 17.2501C15.6048 16.4046 15.9128 15.9502 16.6348 15.2629C17.4803 14.5222 18.3756 14.1392 19.9331 13.4745L19.7897 13.3155C18.614 12.8035 17.9458 12.4966 16.6348 11.686V10.6527C17.4009 10.6761 17.7496 10.6023 18.3556 10.454C19.2079 10.0409 19.5957 9.73688 20.1721 9.10269C20.573 8.47788 20.59 8.11948 20.4371 7.47322C20.3493 7.01181 20.2456 6.71344 19.9809 6.20143L21.5583 4.69119C22.3904 5.81781 22.5874 6.52286 22.7533 7.83091V7.95014V12.9578C22.9781 14.3559 23.0431 14.905 23.1836 15.9783C23.7475 17.6518 24.1956 18.5926 25 20.2706L21.7495 18.2039L19.1683 21.3834L16.7304 19.4359Z"
          fill="white" />
        <path
          d="M10.8509 15.1039C10.1732 14.4208 9.69788 14.0655 8.69981 13.4745L10.1816 12.6796V12.4411C10.2022 11.4153 10.2612 10.8494 10.6597 9.89756C11.0402 9.30922 11.3776 9.02575 12.2849 8.745C12.9687 8.7184 13.0536 8.77385 13.2409 8.86423C13.9612 9.28191 14.2114 9.54756 14.4837 10.0565C14.831 10.4723 14.8832 11.1892 14.914 12.6796L16.3958 13.4745L14.914 14.3885C14.3217 15.0601 13.9975 15.5242 13.4321 16.4949L12.5717 18.7603L11.7113 16.5744L10.8509 15.1039Z"
          fill="white" />
        <path
          d="M15.3442 8.90397L18.374 7.29018C18.368 7.28501 18.3619 7.27978 18.3556 7.2745H18.4034L18.374 7.29018C18.539 7.43314 18.5972 7.53831 18.6424 7.75142C18.6484 8.13128 18.5947 8.32166 18.3078 8.58603C18.0126 8.8345 17.8037 8.96473 17.2562 9.12832C16.475 9.19427 16.0487 9.1791 15.3442 8.90397Z"
          fill="white" />
        <path
          d="M8.413 8.26808L6.64436 7.23476C6.43916 7.65129 6.47013 7.92331 6.59656 8.42705C6.95382 8.82627 7.29448 8.94841 7.93499 9.14243H8.84321C9.31291 9.10439 9.49848 9.0352 9.75143 8.86423L8.413 8.26808Z"
          fill="white" />
        <path
          d="M6.35755 5.16811C4.65451 3.87794 3.83351 3.05769 2.88754 1.39271L4.82792 2.54505H5.16252H5.21033L5.25813 2.42582H5.30593C6.60693 1.44957 7.43887 0.991591 9.17782 0.398917C10.3529 0.117219 11.0543 0.0305485 12.3805 0.0014805C13.6565 -0.0128599 14.3673 0.0758468 15.631 0.319427C17.549 0.899118 18.4618 1.42175 19.9331 2.54505L20.4371 2.50531C21.3269 2.12563 21.7144 1.83895 22.3231 1.27327C21.2044 3.19798 20.1161 4.20448 17.6864 5.92323C16.4565 6.66232 15.7267 7.05586 14.2925 7.69031L13.1453 7.21209H12.0937L10.7553 7.69031C8.90998 6.86461 7.93982 6.30721 6.35755 5.16811Z"
          fill="white" />
      </svg>