<svg
          width="272"
          height="272"
          viewBox="0 0 272 272"
          fill="none"
          xmlns="http://www.w3.org/2000/svg"
        >
          <g filter="url(#filter0_d_81_66)">
            <path
              d="M229.785 141.773C225.518 141.123 222.016 141.666 219.279 143.401C216.543 145.137 214.966 147.418 214.55 150.244C214.272 152.128 214.545 153.836 215.367 155.369C216.207 156.925 217.814 158.36 220.187 159.672L219.416 160.553C216.613 159.691 214.184 158.028 212.13 155.566C210.097 153.106 209.315 150.285 209.783 147.104C210.292 143.65 212.068 140.885 215.111 138.81C218.172 136.758 221.974 136.067 226.517 136.736C231.436 137.461 235.082 139.281 237.454 142.197C239.844 145.137 240.758 148.511 240.197 152.321C239.722 155.545 238.265 158.036 235.824 159.794C233.405 161.555 230.416 162.173 226.857 161.649L229.785 141.773ZM231.606 142.041L229.645 155.355C231.503 155.521 232.833 155.493 233.636 155.269C234.885 154.918 235.922 154.269 236.746 153.321C237.567 152.394 238.06 151.365 238.227 150.235C238.483 148.497 238.032 146.837 236.875 145.255C235.736 143.697 233.979 142.626 231.606 142.041Z"
              fill="white"
            />
            <path
              d="M227.408 174.938C229.54 179.827 229.911 183.651 228.521 186.41C227.807 187.827 226.834 188.865 225.602 189.523C224.388 190.191 222.817 190.418 220.887 190.204C219.544 190.048 217.701 189.38 215.358 188.199L204.276 182.614C202.632 181.786 201.451 181.356 200.731 181.326C200.154 181.295 199.619 181.44 199.126 181.761C198.624 182.1 198.058 182.893 197.43 184.14L196.409 183.626L202.88 170.786L203.9 171.301L203.629 171.839C203.019 173.048 202.775 173.98 202.896 174.633C203.026 175.315 203.403 175.931 204.026 176.482C204.271 176.7 205.14 177.186 206.633 177.938L217.261 183.294C219.623 184.484 221.49 185.034 222.862 184.944C224.244 184.882 225.302 184.124 226.035 182.669C227.168 180.42 227.068 177.562 225.735 174.095L212.046 167.196C210.289 166.31 209.15 165.867 208.63 165.865C207.948 165.853 207.361 166.008 206.868 166.328C206.384 166.677 205.785 167.559 205.071 168.977L204.051 168.462L210.521 155.623L211.542 156.137L211.256 156.704C210.589 158.027 210.472 159.082 210.905 159.868C211.347 160.683 212.513 161.567 214.403 162.519L224.039 167.376C227.157 168.947 229.094 169.828 229.85 170.02C230.597 170.231 231.17 170.247 231.568 170.068C231.956 169.908 232.274 169.583 232.522 169.092C232.788 168.563 232.966 167.858 233.054 166.978L234.288 167.068L233.52 176.49L232.906 177.709L227.408 174.938Z"
              fill="white"
            />
            <path
              d="M220.196 212.759L213.08 206.384L208.548 211.443L206.893 209.961L211.425 204.902L197.383 192.322C195.981 191.066 194.859 190.416 194.017 190.372C193.161 190.344 192.451 190.645 191.887 191.276C191.421 191.796 191.126 192.441 191.004 193.212C190.897 193.997 191.039 194.806 191.429 195.639L190.604 196.561C189.553 194.625 189.086 192.8 189.201 191.086C189.333 189.386 189.879 187.999 190.839 186.928C191.488 186.203 192.32 185.67 193.336 185.33C194.367 185.003 195.401 185.006 196.438 185.339C197.491 185.686 198.797 186.558 200.358 187.956L214.92 201.001L217.99 197.573L218.77 198.272C218.341 199.45 218.133 200.855 218.148 202.487C218.164 204.149 218.422 205.843 218.921 207.569C219.196 208.468 219.839 209.954 220.852 212.026L220.196 212.759Z"
              fill="white"
            />
            <path
              d="M194.387 209.283C191.98 205.7 189.212 203.487 186.083 202.645C182.954 201.802 180.208 202.183 177.845 203.787C176.269 204.857 175.194 206.213 174.621 207.855C174.042 209.526 174.072 211.68 174.71 214.315L173.54 214.343C172.279 211.695 171.862 208.781 172.287 205.603C172.725 202.442 174.274 199.958 176.935 198.152C179.824 196.192 183.061 195.631 186.648 196.469C190.229 197.337 193.309 199.671 195.888 203.47C198.68 207.584 199.805 211.501 199.26 215.22C198.711 218.969 196.843 221.925 193.656 224.087C190.96 225.917 188.14 226.528 185.194 225.918C182.261 225.327 179.784 223.543 177.764 220.566L194.387 209.283ZM195.421 210.807L184.286 218.364C185.42 219.845 186.34 220.806 187.048 221.246C188.151 221.929 189.331 222.254 190.586 222.22C191.824 222.198 192.916 221.866 193.861 221.225C195.314 220.238 196.233 218.784 196.616 216.862C196.993 214.969 196.595 212.951 195.421 210.807Z"
              fill="white"
            />
            <path
              d="M170.401 235.504L168.264 229.325C167.389 234.239 165.741 237.115 163.322 237.952C162.222 238.332 161.194 238.306 160.239 237.875C159.291 237.464 158.665 236.819 158.361 235.939C158.091 235.159 158.123 234.409 158.456 233.69C158.79 232.97 159.316 232.486 160.036 232.237C160.736 231.995 161.644 232.062 162.758 232.437C163.86 232.84 164.621 232.969 165.041 232.824C165.401 232.699 165.722 232.364 166.004 231.819C166.62 230.688 167.083 229.017 167.393 226.805L162.84 213.637C162.315 212.117 161.727 211.033 161.078 210.384C160.631 209.934 160.015 209.643 159.231 209.512C158.447 209.38 157.435 209.528 156.195 209.957L155.821 208.877L169.889 204.013L170.263 205.093C168.863 205.577 167.899 206.156 167.371 206.831C166.982 207.324 166.808 207.955 166.85 208.724C166.868 209.099 167.153 210.086 167.707 211.686L171.388 222.334C172.495 225.534 173.221 227.409 173.569 227.961C173.903 228.539 174.299 228.906 174.755 229.062C175.192 229.224 175.671 229.216 176.19 229.036C176.81 228.821 177.458 228.429 178.135 227.86L178.808 228.836L171.661 235.068L170.401 235.504Z"
              fill="white"
            />
            <path
              d="M132.809 229.802C133.296 225.513 132.619 222.034 130.781 219.366C128.942 216.698 126.602 215.21 123.762 214.902C121.869 214.697 120.173 215.034 118.672 215.914C117.149 216.813 115.777 218.473 114.557 220.895L113.647 220.158C114.401 217.324 115.97 214.834 118.352 212.687C120.732 210.561 123.521 209.672 126.718 210.019C130.189 210.395 133.02 212.064 135.21 215.026C137.377 218.006 138.213 221.779 137.718 226.344C137.182 231.287 135.502 235 132.679 237.482C129.833 239.982 126.495 241.025 122.667 240.61C119.427 240.258 116.882 238.897 115.033 236.526C113.181 234.175 112.448 231.212 112.836 227.636L132.809 229.802ZM132.611 231.632L119.232 230.181C119.137 232.044 119.216 233.372 119.471 234.166C119.869 235.401 120.557 236.412 121.536 237.199C122.494 237.984 123.541 238.438 124.677 238.561C126.422 238.75 128.064 238.237 129.6 237.02C131.114 235.822 132.117 234.026 132.611 231.632Z"
              fill="white"
            />
            <path
              d="M99.6876 228.699C94.888 231.027 91.082 231.552 88.2695 230.274C86.8248 229.617 85.7487 228.687 85.0411 227.482C84.3248 226.297 84.0348 224.735 84.1712 222.799C84.2726 221.45 84.8661 219.582 85.9515 217.193L91.0855 205.895C91.8471 204.219 92.2287 203.022 92.2304 202.302C92.2373 201.724 92.0709 201.195 91.7312 200.715C91.3721 200.227 90.5569 199.694 89.2856 199.116L89.7583 198.076L102.848 204.024L102.375 205.064L101.826 204.815C100.593 204.254 99.6527 204.048 99.0048 204.195C98.3289 204.353 97.7283 204.754 97.203 205.398C96.9947 205.652 96.5447 206.54 95.8532 208.062L90.9292 218.897C89.835 221.305 89.3607 223.193 89.5061 224.561C89.6236 225.939 90.424 226.965 91.9072 227.639C94.1996 228.681 97.0512 228.466 100.462 226.995L106.804 213.038C107.618 211.247 108.016 210.091 107.996 209.571C107.981 208.89 107.803 208.309 107.463 207.83C107.095 207.36 106.189 206.797 104.744 206.141L105.217 205.101L118.306 211.049L117.834 212.089L117.256 211.826C115.907 211.214 114.849 211.139 114.08 211.603C113.283 212.078 112.447 213.279 111.572 215.205L107.108 225.029C105.663 228.208 104.861 230.178 104.699 230.942C104.519 231.697 104.526 232.269 104.721 232.66C104.896 233.042 105.234 233.346 105.735 233.574C106.274 233.819 106.985 233.968 107.868 234.02L107.828 235.257L98.3827 234.869L97.1402 234.305L99.6876 228.699Z"
              fill="white"
            />
            <path
              d="M61.5274 222.857L67.6442 215.519L62.4271 211.17L63.8496 209.463L69.0668 213.812L81.1379 199.331C82.3437 197.884 82.9534 196.74 82.967 195.897C82.9644 195.041 82.6381 194.342 81.988 193.8C81.4516 193.353 80.7961 193.082 80.0213 192.987C79.2329 192.909 78.4297 193.079 77.6115 193.499L76.6607 192.707C78.5572 191.588 80.3643 191.056 82.0818 191.11C83.7858 191.181 85.1905 191.677 86.2956 192.598C87.0433 193.221 87.6053 194.034 87.9817 195.037C88.3446 196.055 88.3783 197.089 88.0829 198.137C87.7739 199.202 86.9488 200.539 85.6075 202.148L73.0893 217.165L76.6243 220.112L75.9537 220.916C74.7617 220.529 73.3503 220.372 71.7194 220.444C70.0587 220.52 68.3749 220.838 66.6681 221.399C65.7795 221.705 64.3178 222.401 62.2831 223.487L61.5274 222.857Z"
              fill="white"
            />
            <path
              d="M64.1135 197.024C67.6082 194.49 69.7205 191.645 70.4502 188.487C71.18 185.33 70.7009 182.599 69.013 180.295C67.8878 178.759 66.4943 177.733 64.8327 177.22C63.1415 176.701 60.9904 176.808 58.3795 177.54L58.3101 176.371C60.9112 175.017 63.8076 174.495 66.9993 174.806C70.1739 175.13 72.7114 176.589 74.6119 179.184C76.6749 182 77.3516 185.216 76.6421 188.83C75.9029 192.44 73.6813 195.602 69.9772 198.315C65.9659 201.253 62.092 202.517 58.3555 202.107C54.5894 201.692 51.5686 199.931 49.2931 196.824C47.3676 194.196 46.6565 191.399 47.1598 188.433C47.646 185.481 49.3401 182.942 52.2419 180.816L64.1135 197.024ZM62.6285 198.111L54.6765 187.255C53.2369 188.441 52.3099 189.395 51.8954 190.118C51.2521 191.245 50.9699 192.436 51.0489 193.689C51.1153 194.926 51.4861 196.005 52.1612 196.927C53.199 198.343 54.6852 199.209 56.6199 199.523C58.5251 199.832 60.5279 199.362 62.6285 198.111Z"
              fill="white"
            />
            <path
              d="M37.0328 174.099L43.1285 171.735C38.1849 171.042 35.2502 169.502 34.3245 167.115C33.9037 166.03 33.891 165.003 34.2863 164.032C34.6618 163.07 35.2836 162.42 36.1516 162.083C36.921 161.785 37.6714 161.789 38.403 162.095C39.1345 162.402 39.638 162.91 39.9135 163.62C40.1812 164.311 40.1481 165.22 39.814 166.348C39.4525 167.464 39.3521 168.229 39.5128 168.644C39.6505 168.999 39.9969 169.307 40.5521 169.568C41.7052 170.142 43.3926 170.543 45.6142 170.771L58.6046 165.733C60.1038 165.151 61.1655 164.524 61.7895 163.851C62.2226 163.388 62.4905 162.762 62.5932 161.973C62.6958 161.184 62.5099 160.179 62.0356 158.955L63.1008 158.542L68.4831 172.42L67.4178 172.834C66.8823 171.453 66.2675 170.511 65.5733 170.009C65.0664 169.638 64.4295 169.488 63.6625 169.558C63.2889 169.59 62.313 169.911 60.7348 170.523L50.2301 174.597C47.0737 175.822 45.2264 176.617 44.6882 176.985C44.1225 177.341 43.7705 177.749 43.632 178.212C43.4859 178.654 43.5123 179.132 43.7112 179.645C43.9484 180.256 44.3641 180.889 44.9584 181.544L44.0079 182.253L37.5148 175.342L37.0328 174.099Z"
              fill="white"
            />
            <path
              d="M41.2588 136.345C45.5633 136.665 49.0132 135.855 51.6084 133.915C54.2037 131.974 55.6003 129.579 55.7983 126.729C55.9304 124.83 55.5277 123.147 54.5902 121.682C53.6331 120.195 51.9211 118.888 49.4541 117.762L50.1556 116.824C53.0166 117.469 55.5656 118.94 57.8026 121.237C60.0185 123.534 61.015 126.286 60.792 129.494C60.5499 132.977 58.9915 135.87 56.1165 138.173C53.222 140.453 49.4845 141.434 44.9041 141.116C39.9437 140.771 36.169 139.236 33.5799 136.511C30.9711 133.763 29.8002 130.469 30.0672 126.627C30.2932 123.376 31.5552 120.781 33.8535 118.841C36.1306 116.9 39.0634 116.054 42.6517 116.303L41.2588 136.345ZM39.4224 136.217L40.3554 122.793C38.4906 122.769 37.1665 122.9 36.3831 123.185C35.1644 123.63 34.1806 124.357 33.4318 125.366C32.6845 126.353 32.2712 127.417 32.192 128.556C32.0702 130.308 32.647 131.929 33.9222 133.417C35.1777 134.883 37.0111 135.816 39.4224 136.217Z"
              fill="white"
            />
            <path
              d="M41.0329 103.165C38.5252 98.4565 37.8567 94.673 39.0274 91.8143C39.6288 90.3457 40.518 89.2351 41.695 88.4825C42.8525 87.7218 44.4015 87.3729 46.342 87.4359C47.6933 87.4863 49.5829 88.0086 52.0109 89.0028L63.495 93.7056C65.1985 94.4032 66.4099 94.7392 67.1291 94.7137C67.7069 94.6988 68.229 94.5125 68.6956 94.1548C69.1702 93.7775 69.6721 92.9427 70.2013 91.6504L71.2586 92.0834L65.8101 105.388L64.7528 104.955L64.9813 104.397C65.4945 103.144 65.6653 102.197 65.4937 101.555C65.3106 100.885 64.8871 100.3 64.2232 99.7999C63.9615 99.6013 63.0573 99.1853 61.5104 98.5518L50.4963 94.0415C48.0487 93.0392 46.1444 92.6366 44.7832 92.8338C43.4105 93.0033 42.4155 93.8419 41.7981 95.3496C40.8439 97.6797 41.1665 100.521 42.7658 103.874L56.952 109.683C58.773 110.429 59.943 110.783 60.4619 110.744C61.142 110.702 61.7154 110.502 62.1819 110.145C62.6369 109.759 63.1651 108.832 63.7665 107.364L64.8239 107.797L59.3754 121.102L58.318 120.669L58.5586 120.082C59.1199 118.711 59.1541 117.65 58.6612 116.9C58.1567 116.122 56.9255 115.332 54.9674 114.53L44.9813 110.44C41.7505 109.117 39.7505 108.39 38.9815 108.258C38.2205 108.106 37.6485 108.135 37.2657 108.344C36.8908 108.533 36.5992 108.883 36.3907 109.392C36.1662 109.94 36.0444 110.656 36.0254 111.54L34.7877 111.548L34.8177 102.094L35.3349 100.831L41.0329 103.165Z"
              fill="white"
            />
            <path
              d="M45.1834 65.0132L52.765 70.8256L56.8974 65.4354L58.6606 66.7872L54.5281 72.1774L69.4896 83.6478C70.9841 84.7935 72.1525 85.3561 72.9949 85.3353C73.8502 85.2978 74.5353 84.9433 75.0502 84.2716C75.4751 83.7174 75.7191 83.0514 75.7824 82.2734C75.8288 81.4825 75.6256 80.6868 75.1728 79.8864L75.9259 78.9041C77.1209 80.7534 77.7263 82.5373 77.742 84.2556C77.7409 85.9611 77.3026 87.3848 76.4272 88.5266C75.835 89.299 75.0458 89.8938 74.0596 90.3108C73.0565 90.7149 72.0252 90.7907 70.9657 90.5383C69.8893 90.273 68.5199 89.5031 66.8575 88.2286L51.3419 76.3333L48.5419 79.9856L47.7107 79.3483C48.0493 78.1415 48.1489 76.7249 48.0095 75.0983C47.8662 73.4421 47.4797 71.7727 46.85 70.0902C46.5081 69.2147 45.753 67.7827 44.5848 65.794L45.1834 65.0132Z"
              fill="white"
            />
            <path
              d="M70.9295 66.6164C73.6036 70.0048 76.5329 71.9991 79.7173 72.5994C82.9018 73.1996 85.6108 72.6095 87.8444 70.8289C89.3334 69.6418 90.3008 68.2077 90.7465 66.5265C91.1955 64.8156 91.0009 62.6706 90.1627 60.0917L91.3277 59.9747C92.7872 62.5184 93.4267 65.3911 93.2461 68.5928C93.0522 71.7779 91.6979 74.3729 89.1831 76.3777C86.4532 78.554 83.268 79.3614 79.6274 78.8C75.9902 78.2089 72.7405 76.1182 69.8784 72.528C66.7789 68.6399 65.3579 64.8208 65.6155 61.0707C65.8764 57.2908 67.5124 54.2007 70.5236 51.8002C73.0715 49.769 75.8371 48.9443 78.8204 49.3262C81.7905 49.6914 84.3966 51.2804 86.6389 54.093L70.9295 66.6164ZM69.782 65.177L80.3045 56.7885C79.0611 55.3985 78.0697 54.5112 77.3301 54.1266C76.1779 53.5299 74.9771 53.2965 73.7278 53.4265C72.4951 53.5434 71.432 53.9579 70.5385 54.6701C69.1653 55.7649 68.3614 57.2852 68.1267 59.2311C67.8954 61.1473 68.4472 63.1293 69.782 65.177Z"
              fill="white"
            />
            <path
              d="M93.2523 38.2849L95.8457 44.2866C96.3504 39.3202 97.7779 36.3293 100.128 35.3137C101.196 34.8521 102.223 34.8004 103.207 35.1587C104.184 35.4975 104.856 36.0942 105.226 36.9488C105.553 37.7063 105.577 38.4564 105.299 39.199C105.021 39.9417 104.532 40.4641 103.833 40.7662C103.153 41.06 102.243 41.0613 101.103 40.7702C99.9739 40.4513 99.2055 40.38 98.7976 40.5562C98.448 40.7073 98.1532 41.0652 97.9132 41.6299C97.3833 42.8039 97.0466 44.5053 96.9032 46.7339L102.43 59.524C103.068 61.0001 103.735 62.0372 104.431 62.6352C104.91 63.0506 105.546 63.2945 106.338 63.3672C107.13 63.4398 108.128 63.216 109.332 62.6956L109.786 63.7444L96.1216 69.6489L95.6684 68.6001C97.028 68.0126 97.9457 67.3625 98.4214 66.6498C98.7727 66.1292 98.8986 65.487 98.799 64.7233C98.7535 64.3512 98.395 63.3882 97.7235 61.8343L93.2543 51.4915C91.9114 48.3839 91.0461 46.568 90.6583 46.0441C90.2816 45.4923 89.8597 45.156 89.3926 45.0352C88.9449 44.9059 88.4685 44.9504 87.9635 45.1687C87.3614 45.4288 86.7446 45.8683 86.113 46.4869L85.3684 45.564L92.0286 38.8136L93.2523 38.2849Z"
              fill="white"
            />
            <path
              d="M130.858 41.0717C130.704 45.3854 131.646 48.8015 133.685 51.3202C135.724 53.8388 138.171 55.1422 141.026 55.2305C142.929 55.2893 144.595 54.8222 146.023 53.829C147.473 52.8154 148.712 51.0543 149.743 48.5459L150.706 49.2108C150.173 52.0944 148.801 54.6981 146.591 57.0219C144.382 59.3245 141.67 60.4262 138.455 60.3268C134.966 60.219 132.015 58.7729 129.603 55.9888C127.213 53.1841 126.089 49.4871 126.231 44.8978C126.384 39.9279 127.773 36.0969 130.396 33.4048C133.042 30.6923 136.289 29.3955 140.138 29.5145C143.395 29.6152 146.037 30.7764 148.064 32.9983C150.092 35.1991 151.05 38.0971 150.939 41.6924L130.858 41.0717ZM130.915 39.2317L144.366 39.6475C144.317 37.7831 144.136 36.4651 143.821 35.6932C143.329 34.4926 142.565 33.5375 141.528 32.8281C140.513 32.1193 139.434 31.7472 138.292 31.7119C136.537 31.6577 134.94 32.2963 133.501 33.6278C132.085 34.9389 131.223 36.8068 130.915 39.2317Z"
              fill="white"
            />
            <path
              d="M163.678 39.4097C168.28 36.7124 172.033 35.8904 174.937 36.9437C176.429 37.4848 177.574 38.328 178.374 39.4735C179.182 40.599 179.593 42.1325 179.609 44.074C179.614 45.4262 179.169 47.3355 178.275 49.802L174.043 61.468C173.416 63.1985 173.129 64.4226 173.184 65.1402C173.223 65.7168 173.43 66.231 173.806 66.6826C174.203 67.1414 175.057 67.6089 176.37 68.0851L175.98 69.1592L162.464 64.257L162.854 63.1829L163.421 63.3885C164.694 63.8502 165.648 63.9823 166.282 63.7847C166.943 63.5745 167.511 63.1275 167.984 62.4438C168.171 62.1743 168.55 61.2538 169.12 59.6825L173.178 48.4938C174.08 46.0074 174.405 44.0883 174.152 42.7363C173.927 41.3716 173.049 40.4116 171.517 39.8561C169.15 38.9976 166.324 39.4356 163.039 41.1701L157.812 55.5811C157.141 57.431 156.836 58.6144 156.896 59.1313C156.965 59.8092 157.188 60.3739 157.564 60.8255C157.968 61.2645 158.916 61.7545 160.407 62.2955L160.018 63.3696L146.502 58.4675L146.892 57.3934L147.488 57.6098C148.881 58.1148 149.942 58.1058 150.672 57.5828C151.429 57.047 152.168 55.7846 152.889 53.7955L156.569 43.6512C157.759 40.3691 158.404 38.3412 158.505 37.5675C158.626 36.8009 158.574 36.2306 158.349 35.8566C158.144 35.4898 157.784 35.2126 157.266 35.025C156.709 34.823 155.989 34.7305 155.105 34.7475L155.047 33.5111L164.494 33.1562L165.777 33.6215L163.678 39.4097Z"
              fill="white"
            />
            <path
              d="M202.693 42.4446L197.156 50.2293L202.69 54.1662L201.402 55.9766L195.868 52.0397L184.94 67.4022C183.849 68.9367 183.328 70.1245 183.379 70.9656C183.447 71.819 183.826 72.491 184.516 72.9815C185.085 73.3863 185.759 73.6063 186.539 73.6417C187.331 73.6598 188.119 73.4283 188.902 72.9471L189.911 73.6646C188.106 74.925 186.345 75.5938 184.628 75.671C182.924 75.7309 181.485 75.3439 180.313 74.5099C179.52 73.9457 178.897 73.1783 178.445 72.2076C178.005 71.2197 177.892 70.1918 178.107 69.1239C178.333 68.0387 179.054 66.6426 180.268 64.9357L191.6 49.0043L187.85 46.3367L188.457 45.4833C189.675 45.7785 191.095 45.8274 192.715 45.6299C194.365 45.4274 196.02 44.9814 197.679 44.2919C198.541 43.9188 199.946 43.1129 201.891 41.8743L202.693 42.4446Z"
              fill="white"
            />
            <path
              d="M202.043 68.2999C198.752 71.0931 196.863 74.0917 196.377 77.2955C195.891 80.4994 196.577 83.1856 198.436 85.3543C199.675 86.8 201.143 87.7156 202.839 88.1011C204.565 88.4888 206.702 88.2178 209.249 87.2882L209.408 88.4483C206.918 89.9976 204.07 90.7391 200.863 90.6728C197.673 90.5927 195.032 89.3318 192.938 86.89C190.666 84.2395 189.746 81.0851 190.177 77.4268C190.638 73.7708 192.611 70.4487 196.097 67.4603C199.872 64.2241 203.638 62.6678 207.395 62.7915C211.182 62.9174 214.329 64.4422 216.835 67.3658C218.956 69.8397 219.878 72.5741 219.603 75.5691C219.344 78.5503 217.849 81.2115 215.118 83.5526L202.043 68.2999ZM203.44 67.1018L212.199 77.3185C213.543 76.0263 214.395 75.0038 214.753 74.251C215.308 73.0782 215.498 71.8699 215.324 70.626C215.163 69.3982 214.711 68.3506 213.967 67.4831C212.824 66.1498 211.276 65.4006 209.323 65.2355C207.4 65.0727 205.439 65.6948 203.44 67.1018Z"
              fill="white"
            />
            <path
              d="M230.831 89.0024L224.939 91.836C229.921 92.1398 232.967 93.4453 234.077 95.7526C234.581 96.8013 234.674 97.8248 234.356 98.8231C234.057 99.8122 233.488 100.508 232.649 100.912C231.905 101.27 231.157 101.324 230.404 101.076C229.65 100.828 229.109 100.361 228.778 99.6742C228.458 99.0068 228.419 98.0977 228.664 96.9469C228.937 95.806 228.978 95.0353 228.785 94.6349C228.62 94.2917 228.25 94.0115 227.677 93.7945C226.482 93.3124 224.769 93.0447 222.536 92.9915L209.979 99.0301C208.53 99.7271 207.521 100.436 206.951 101.155C206.556 101.651 206.338 102.296 206.297 103.09C206.256 103.885 206.52 104.873 207.089 106.055L206.059 106.55L199.608 93.1356L200.638 92.6404C201.28 93.9752 201.966 94.8659 202.698 95.3125C203.232 95.6425 203.879 95.7423 204.638 95.612C205.008 95.5515 205.955 95.1544 207.481 94.4208L217.635 89.5376C220.686 88.0703 222.465 87.1324 222.973 86.7238C223.509 86.3251 223.828 85.8899 223.93 85.4183C224.041 84.9658 223.977 84.4916 223.739 83.9958C223.455 83.4047 222.991 82.8061 222.347 82.2L223.239 81.4188L230.253 87.8011L230.831 89.0024Z"
              fill="white"
            />
          </g>
          <defs>
            <filter
              id="filter0_d_81_66"
              x="25.1365"
              y="29.0997"
              width="221.017"
              height="220.957"
              filterUnits="userSpaceOnUse"
              color-interpolation-filters="sRGB"
            >
              <feFlood flood-opacity="0" result="BackgroundImageFix" />
              <feColorMatrix
                in="SourceAlpha"
                type="matrix"
                values="0 0 0 0 0 0 0 0 0 0 0 0 0 0 0 0 0 0 127 0"
                result="hardAlpha"
              />
              <feOffset dy="4" />
              <feGaussianBlur stdDeviation="2" />
              <feComposite in2="hardAlpha" operator="out" />
              <feColorMatrix type="matrix" values="0 0 0 0 0 0 0 0 0 0 0 0 0 0 0 0 0 0 0.25 0" />
              <feBlend mode="normal" in2="BackgroundImageFix" result="effect1_dropShadow_81_66" />
              <feBlend
                mode="normal"
                in="SourceGraphic"
                in2="effect1_dropShadow_81_66"
                result="shape"
              />
            </filter>
          </defs>
        </svg>