<svg width="40" height="40" viewBox="0 0 40 40" fill="none" xmlns="http://www.w3.org/2000/svg">
        <path
          d="M17.57 20.7892C19.0775 21.6583 19.8308 22.0925 20.6592 22.0933C21.4875 22.0942 22.2408 21.6608 23.7508 20.7942L33.3692 15.2717C33.5825 15.1493 33.7597 14.9727 33.8829 14.7599C34.0062 14.5471 34.0711 14.3055 34.0711 14.0596C34.0711 13.8136 34.0062 13.5721 33.8829 13.3593C33.7597 13.1464 33.5825 12.9699 33.3692 12.8475L23.7467 7.32249C22.2392 6.45833 21.4858 6.02499 20.6583 6.02499C19.8308 6.02499 19.0783 6.45833 17.5717 7.32499L9.29917 12.0833L9.17833 12.1533C7.79002 12.9648 6.63655 14.1234 5.83113 15.5152C5.0257 16.9071 4.59599 18.4844 4.58417 20.0925V20.3708C4.59616 22.0007 5.03746 23.5986 5.8636 25.0037C6.68974 26.4087 7.87156 27.5712 9.29 28.3742L14.4717 31.3625C17.4908 33.1042 19.0008 33.975 20.6592 33.975C22.3175 33.9758 23.8267 33.1058 26.8475 31.3667L32.3175 28.2167C33.83 27.3458 34.5867 26.9108 35.0008 26.1933C35.4175 25.475 35.4175 24.6033 35.4175 22.86V19.4908C35.4178 19.2566 35.3563 19.0264 35.2394 18.8234C35.1224 18.6204 34.954 18.4519 34.7511 18.3347C34.5483 18.2175 34.3181 18.1558 34.0839 18.1559C33.8496 18.1559 33.6195 18.2177 33.4167 18.335L22.2 24.775C21.4475 25.2067 21.0717 25.4233 20.6583 25.4233C20.2458 25.4233 19.8692 25.2075 19.1167 24.7758L11.525 20.4233C11.1442 20.205 10.9542 20.0958 10.8017 20.0767C10.6324 20.0549 10.4606 20.0897 10.3131 20.1756C10.1656 20.2615 10.0505 20.3937 9.98583 20.5517C9.9275 20.6933 9.92917 20.9125 9.93083 21.35C9.93333 21.6725 9.93417 21.8333 9.96417 21.9825C10.0317 22.3142 10.2058 22.6158 10.4617 22.8383C10.5758 22.9383 10.7158 23.0183 10.995 23.18L19.1117 27.8592C19.8667 28.2942 20.2442 28.5117 20.6583 28.5117C21.0725 28.5117 21.45 28.295 22.205 27.86L32.1542 22.1317C32.4125 21.9833 32.5408 21.9092 32.6375 21.965C32.7342 22.0208 32.7342 22.1692 32.7342 22.4667V23.9942C32.7342 24.4308 32.7342 24.6483 32.63 24.8275C32.5267 25.0075 32.3375 25.1158 31.9592 25.3342L23.7533 30.0592C22.2425 30.9283 21.4875 31.3633 20.6583 31.3625C19.8292 31.3617 19.075 30.9267 17.565 30.0558L9.8875 25.6258L9.84 25.5983C9.04912 25.1369 8.39221 24.4772 7.93407 23.6845C7.47593 22.8917 7.2324 21.9931 7.2275 21.0775V19.62C7.22767 19.1147 7.36063 18.6183 7.61307 18.1805C7.86551 17.7428 8.22855 17.3791 8.66583 17.1258C9.05247 16.9019 9.4913 16.7838 9.93811 16.7835C10.3849 16.7832 10.8239 16.9007 11.2108 17.1242L17.57 20.7892Z"
          stroke="white" stroke-width="0.5" stroke-linecap="round" stroke-linejoin="round" />
      </svg>