<svg width="217" height="105" viewBox="0 0 217 105" fill="none" xmlns="http://www.w3.org/2000/svg">
<path d="M24.7549 41.6826V48.5527H24.2129C24.0371 47.2344 23.7197 46.1846 23.2607 45.4033C22.8115 44.6221 22.167 44.002 21.3271 43.543C20.4873 43.084 19.6182 42.8545 18.7197 42.8545C17.7041 42.8545 16.8643 43.167 16.2002 43.792C15.5361 44.4072 15.2041 45.1104 15.2041 45.9014C15.2041 46.5068 15.4141 47.0586 15.834 47.5566C16.4395 48.2891 17.8799 49.2656 20.1553 50.4863C22.0107 51.4824 23.2754 52.249 23.9492 52.7861C24.6328 53.3135 25.1553 53.9385 25.5166 54.6611C25.8877 55.3838 26.0732 56.1406 26.0732 56.9316C26.0732 58.4355 25.4873 59.7344 24.3154 60.8281C23.1533 61.9121 21.6543 62.4541 19.8184 62.4541C19.2422 62.4541 18.7002 62.4102 18.1924 62.3223C17.8896 62.2734 17.2598 62.0977 16.3027 61.7949C15.3555 61.4824 14.7549 61.3262 14.501 61.3262C14.2568 61.3262 14.0615 61.3994 13.915 61.5459C13.7783 61.6924 13.6758 61.9951 13.6074 62.4541H13.0654V55.6426H13.6074C13.8613 57.0684 14.2031 58.1377 14.6328 58.8506C15.0625 59.5537 15.7168 60.1396 16.5957 60.6084C17.4844 61.0771 18.4561 61.3115 19.5107 61.3115C20.7314 61.3115 21.6934 60.9893 22.3965 60.3447C23.1094 59.7002 23.4658 58.9385 23.4658 58.0596C23.4658 57.5713 23.3291 57.0781 23.0557 56.5801C22.792 56.082 22.377 55.6182 21.8105 55.1885C21.4297 54.8955 20.3896 54.2754 18.6904 53.3281C16.9912 52.3711 15.7803 51.6094 15.0576 51.043C14.3447 50.4766 13.8027 49.8516 13.4316 49.168C13.0605 48.4844 12.875 47.7324 12.875 46.9121C12.875 45.4863 13.4219 44.2607 14.5156 43.2354C15.6094 42.2002 17.001 41.6826 18.6904 41.6826C19.7451 41.6826 20.8633 41.9414 22.0449 42.459C22.5918 42.7031 22.9775 42.8252 23.2021 42.8252C23.4561 42.8252 23.6611 42.752 23.8174 42.6055C23.9834 42.4492 24.1152 42.1416 24.2129 41.6826H24.7549Z" fill="white"/>
<path d="M161.152 17.6982V23.4844C161.152 24.7344 161.289 25.5107 161.562 25.8135C161.934 26.2432 162.495 26.458 163.247 26.458H164.009V27H155.498V26.458H156.245C157.085 26.458 157.686 26.1846 158.047 25.6377C158.242 25.335 158.34 24.6172 158.34 23.4844V10.6523C158.34 9.40234 158.208 8.62598 157.944 8.32324C157.563 7.89355 156.997 7.67871 156.245 7.67871H155.498V7.13672H162.778C164.556 7.13672 165.957 7.32227 166.982 7.69336C168.008 8.05469 168.872 8.66992 169.575 9.53906C170.278 10.4082 170.63 11.4385 170.63 12.6299C170.63 14.251 170.093 15.5693 169.019 16.585C167.954 17.6006 166.445 18.1084 164.492 18.1084C164.014 18.1084 163.496 18.0742 162.939 18.0059C162.383 17.9375 161.787 17.835 161.152 17.6982ZM161.152 16.8633C161.67 16.9609 162.129 17.0342 162.529 17.083C162.93 17.1318 163.271 17.1562 163.555 17.1562C164.57 17.1562 165.444 16.7656 166.177 15.9844C166.919 15.1934 167.29 14.1729 167.29 12.9229C167.29 12.0635 167.114 11.2676 166.763 10.5352C166.411 9.79297 165.913 9.24121 165.269 8.87988C164.624 8.50879 163.892 8.32324 163.071 8.32324C162.573 8.32324 161.934 8.41602 161.152 8.60156V16.8633Z" fill="white"/>
<path d="M125.275 27L117.6 10.2861V23.5576C117.6 24.7783 117.731 25.54 117.995 25.8428C118.356 26.2529 118.928 26.458 119.709 26.458H120.412V27H113.498V26.458H114.201C115.041 26.458 115.637 26.2041 115.988 25.6963C116.203 25.3838 116.311 24.6709 116.311 23.5576V10.5791C116.311 9.7002 116.213 9.06543 116.018 8.6748C115.881 8.3916 115.627 8.15723 115.256 7.97168C114.895 7.77637 114.309 7.67871 113.498 7.67871V7.13672H119.123L126.33 22.6787L133.42 7.13672H139.045V7.67871H138.356C137.507 7.67871 136.906 7.93262 136.555 8.44043C136.34 8.75293 136.232 9.46582 136.232 10.5791V23.5576C136.232 24.7783 136.369 25.54 136.643 25.8428C137.004 26.2529 137.575 26.458 138.356 26.458H139.045V27H130.607V26.458H131.311C132.16 26.458 132.756 26.2041 133.098 25.6963C133.312 25.3838 133.42 24.6709 133.42 23.5576V10.2861L125.759 27H125.275Z" fill="white"/>
<path d="M50.1523 17.6982V23.4844C50.1523 24.7344 50.2891 25.5107 50.5625 25.8135C50.9336 26.2432 51.4951 26.458 52.2471 26.458H53.0088V27H44.498V26.458H45.2451C46.085 26.458 46.6855 26.1846 47.0469 25.6377C47.2422 25.335 47.3398 24.6172 47.3398 23.4844V10.6523C47.3398 9.40234 47.208 8.62598 46.9443 8.32324C46.5635 7.89355 45.9971 7.67871 45.2451 7.67871H44.498V7.13672H51.7783C53.5557 7.13672 54.957 7.32227 55.9824 7.69336C57.0078 8.05469 57.8721 8.66992 58.5752 9.53906C59.2783 10.4082 59.6299 11.4385 59.6299 12.6299C59.6299 14.251 59.0928 15.5693 58.0186 16.585C56.9541 17.6006 55.4453 18.1084 53.4922 18.1084C53.0137 18.1084 52.4961 18.0742 51.9395 18.0059C51.3828 17.9375 50.7871 17.835 50.1523 17.6982ZM50.1523 16.8633C50.6699 16.9609 51.1289 17.0342 51.5293 17.083C51.9297 17.1318 52.2715 17.1562 52.5547 17.1562C53.5703 17.1562 54.4443 16.7656 55.1768 15.9844C55.9189 15.1934 56.29 14.1729 56.29 12.9229C56.29 12.0635 56.1143 11.2676 55.7627 10.5352C55.4111 9.79297 54.9131 9.24121 54.2686 8.87988C53.624 8.50879 52.8916 8.32324 52.0713 8.32324C51.5732 8.32324 50.9336 8.41602 50.1523 8.60156V16.8633Z" fill="white"/>
<path d="M93.3115 7.67871V7.13672H100.343V7.67871H99.5957C98.8145 7.67871 98.2139 8.00586 97.7939 8.66016C97.5889 8.96289 97.4863 9.66602 97.4863 10.7695V18.8262C97.4863 20.8184 97.2861 22.3662 96.8857 23.4697C96.4951 24.5635 95.7188 25.5059 94.5566 26.2969C93.4043 27.0781 91.832 27.4688 89.8398 27.4688C87.6719 27.4688 86.0264 27.0928 84.9033 26.3408C83.7803 25.5889 82.9844 24.5781 82.5156 23.3086C82.2031 22.4395 82.0469 20.8086 82.0469 18.416V10.6523C82.0469 9.43164 81.876 8.63086 81.5342 8.25C81.2021 7.86914 80.6602 7.67871 79.9082 7.67871H79.1611V7.13672H87.7451V7.67871H86.9834C86.1631 7.67871 85.5771 7.9375 85.2256 8.45508C84.9814 8.80664 84.8594 9.53906 84.8594 10.6523V19.3096C84.8594 20.0811 84.9277 20.9648 85.0645 21.9609C85.2109 22.957 85.4697 23.7334 85.8408 24.29C86.2119 24.8467 86.7441 25.3057 87.4375 25.667C88.1406 26.0283 89 26.209 90.0156 26.209C91.3145 26.209 92.4766 25.9258 93.502 25.3594C94.5273 24.793 95.2256 24.0703 95.5967 23.1914C95.9775 22.3027 96.168 20.8037 96.168 18.6943V10.6523C96.168 9.41211 96.0312 8.63574 95.7578 8.32324C95.377 7.89355 94.8105 7.67871 94.0586 7.67871H93.3115Z" fill="white"/>
<path d="M144 3V99" stroke="white"/>
<path d="M180 3V99" stroke="white"/>
<path d="M72 2.5V99" stroke="white"/>
<path d="M36 2V99" stroke="white"/>
<path d="M108 2V99" stroke="white"/>
<path d="M89 91.2109C89.612 91.2109 90.1263 91.4258 90.543 91.8555C90.9596 92.2721 91.168 92.7799 91.168 93.3789C91.168 93.9779 90.9531 94.4922 90.5234 94.9219C90.1068 95.3385 89.599 95.5469 89 95.5469C88.401 95.5469 87.8867 95.3385 87.457 94.9219C87.0404 94.4922 86.832 93.9779 86.832 93.3789C86.832 92.7669 87.0404 92.2526 87.457 91.8359C87.8867 91.4193 88.401 91.2109 89 91.2109Z" fill="white"/>
<path d="M0 68L217 67.9851" stroke="white"/>
<path d="M0 34.0194L217 33" stroke="white"/>
<path d="M62.3584 43.1367L62.5781 47.7949H62.0215C61.9141 46.9746 61.7676 46.3887 61.582 46.0371C61.2793 45.4707 60.874 45.0557 60.3662 44.792C59.8682 44.5186 59.209 44.3818 58.3887 44.3818H55.5908V59.5576C55.5908 60.7783 55.7227 61.54 55.9863 61.8428C56.3574 62.2529 56.9287 62.458 57.7002 62.458H58.3887V63H49.9658V62.458H50.6689C51.5088 62.458 52.1045 62.2041 52.4561 61.6963C52.6709 61.3838 52.7783 60.6709 52.7783 59.5576V44.3818H50.3906C49.4629 44.3818 48.8037 44.4502 48.4131 44.5869C47.9053 44.7725 47.4707 45.1289 47.1094 45.6562C46.748 46.1836 46.5332 46.8965 46.4648 47.7949H45.9082L46.1426 43.1367H62.3584Z" fill="white"/>
<path d="M92.7256 54.3496H85.0352L83.6875 57.4844C83.3555 58.2559 83.1895 58.832 83.1895 59.2129C83.1895 59.5156 83.3311 59.7842 83.6143 60.0186C83.9072 60.2432 84.5322 60.3896 85.4893 60.458V61H79.2344V60.458C80.0645 60.3115 80.6016 60.1211 80.8457 59.8867C81.3438 59.418 81.8955 58.4658 82.501 57.0303L89.4883 40.6826H90.001L96.915 57.2061C97.4717 58.5342 97.9746 59.3984 98.4238 59.7988C98.8828 60.1895 99.5176 60.4092 100.328 60.458V61H92.4912V60.458C93.2822 60.4189 93.8145 60.2871 94.0879 60.0625C94.3711 59.8379 94.5127 59.5645 94.5127 59.2422C94.5127 58.8125 94.3174 58.1338 93.9268 57.2061L92.7256 54.3496ZM92.3154 53.2656L88.9463 45.2383L85.4893 53.2656H92.3154Z" fill="white"/>
<path d="M134.358 43.1367L134.578 47.7949H134.021C133.914 46.9746 133.768 46.3887 133.582 46.0371C133.279 45.4707 132.874 45.0557 132.366 44.792C131.868 44.5186 131.209 44.3818 130.389 44.3818H127.591V59.5576C127.591 60.7783 127.723 61.54 127.986 61.8428C128.357 62.2529 128.929 62.458 129.7 62.458H130.389V63H121.966V62.458H122.669C123.509 62.458 124.104 62.2041 124.456 61.6963C124.671 61.3838 124.778 60.6709 124.778 59.5576V44.3818H122.391C121.463 44.3818 120.804 44.4502 120.413 44.5869C119.905 44.7725 119.471 45.1289 119.109 45.6562C118.748 46.1836 118.533 46.8965 118.465 47.7949H117.908L118.143 43.1367H134.358Z" fill="white"/>
<path d="M168.755 42.6826V49.5527H168.213C168.037 48.2344 167.72 47.1846 167.261 46.4033C166.812 45.6221 166.167 45.002 165.327 44.543C164.487 44.084 163.618 43.8545 162.72 43.8545C161.704 43.8545 160.864 44.167 160.2 44.792C159.536 45.4072 159.204 46.1104 159.204 46.9014C159.204 47.5068 159.414 48.0586 159.834 48.5566C160.439 49.2891 161.88 50.2656 164.155 51.4863C166.011 52.4824 167.275 53.249 167.949 53.7861C168.633 54.3135 169.155 54.9385 169.517 55.6611C169.888 56.3838 170.073 57.1406 170.073 57.9316C170.073 59.4355 169.487 60.7344 168.315 61.8281C167.153 62.9121 165.654 63.4541 163.818 63.4541C163.242 63.4541 162.7 63.4102 162.192 63.3223C161.89 63.2734 161.26 63.0977 160.303 62.7949C159.355 62.4824 158.755 62.3262 158.501 62.3262C158.257 62.3262 158.062 62.3994 157.915 62.5459C157.778 62.6924 157.676 62.9951 157.607 63.4541H157.065V56.6426H157.607C157.861 58.0684 158.203 59.1377 158.633 59.8506C159.062 60.5537 159.717 61.1396 160.596 61.6084C161.484 62.0771 162.456 62.3115 163.511 62.3115C164.731 62.3115 165.693 61.9893 166.396 61.3447C167.109 60.7002 167.466 59.9385 167.466 59.0596C167.466 58.5713 167.329 58.0781 167.056 57.5801C166.792 57.082 166.377 56.6182 165.811 56.1885C165.43 55.8955 164.39 55.2754 162.69 54.3281C160.991 53.3711 159.78 52.6094 159.058 52.043C158.345 51.4766 157.803 50.8516 157.432 50.168C157.061 49.4844 156.875 48.7324 156.875 47.9121C156.875 46.4863 157.422 45.2607 158.516 44.2354C159.609 43.2002 161.001 42.6826 162.69 42.6826C163.745 42.6826 164.863 42.9414 166.045 43.459C166.592 43.7031 166.978 43.8252 167.202 43.8252C167.456 43.8252 167.661 43.752 167.817 43.6055C167.983 43.4492 168.115 43.1416 168.213 42.6826H168.755Z" fill="white"/>
<path d="M124.138 76.2207V84.0283H127.756C128.586 84.0283 129.191 83.8477 129.572 83.4863C129.963 83.1152 130.222 82.3877 130.349 81.3037H130.891V88.0273H130.349C130.339 87.2559 130.236 86.6895 130.041 86.3281C129.855 85.9668 129.592 85.6982 129.25 85.5225C128.918 85.3369 128.42 85.2441 127.756 85.2441H124.138V91.4844C124.138 92.4902 124.201 93.1543 124.328 93.4766C124.426 93.7207 124.631 93.9307 124.943 94.1064C125.373 94.3408 125.822 94.458 126.291 94.458H127.009V95H118.483V94.458H119.187C120.007 94.458 120.603 94.2188 120.974 93.7402C121.208 93.4277 121.325 92.6758 121.325 91.4844V78.6523C121.325 77.6465 121.262 76.9824 121.135 76.6602C121.037 76.416 120.837 76.2061 120.534 76.0303C120.114 75.7959 119.665 75.6787 119.187 75.6787H118.483V75.1367H133.264L133.454 79.502H132.941C132.688 78.5742 132.39 77.8955 132.048 77.4658C131.716 77.0264 131.301 76.709 130.803 76.5137C130.314 76.3184 129.553 76.2207 128.518 76.2207H124.138Z" fill="white"/>
<path d="M165.312 75.6787V75.1367H172.343V75.6787H171.596C170.814 75.6787 170.214 76.0059 169.794 76.6602C169.589 76.9629 169.486 77.666 169.486 78.7695V86.8262C169.486 88.8184 169.286 90.3662 168.886 91.4697C168.495 92.5635 167.719 93.5059 166.557 94.2969C165.404 95.0781 163.832 95.4688 161.84 95.4688C159.672 95.4688 158.026 95.0928 156.903 94.3408C155.78 93.5889 154.984 92.5781 154.516 91.3086C154.203 90.4395 154.047 88.8086 154.047 86.416V78.6523C154.047 77.4316 153.876 76.6309 153.534 76.25C153.202 75.8691 152.66 75.6787 151.908 75.6787H151.161V75.1367H159.745V75.6787H158.983C158.163 75.6787 157.577 75.9375 157.226 76.4551C156.981 76.8066 156.859 77.5391 156.859 78.6523V87.3096C156.859 88.0811 156.928 88.9648 157.064 89.9609C157.211 90.957 157.47 91.7334 157.841 92.29C158.212 92.8467 158.744 93.3057 159.438 93.667C160.141 94.0283 161 94.209 162.016 94.209C163.314 94.209 164.477 93.9258 165.502 93.3594C166.527 92.793 167.226 92.0703 167.597 91.1914C167.978 90.3027 168.168 88.8037 168.168 86.6943V78.6523C168.168 77.4121 168.031 76.6357 167.758 76.3232C167.377 75.8936 166.811 75.6787 166.059 75.6787H165.312Z" fill="white"/>
<path d="M186.604 73.1367H191.995L204.139 88.0342V76.5791C204.139 75.3584 204.002 74.5967 203.729 74.2939C203.367 73.8838 202.796 73.6787 202.015 73.6787H201.326V73.1367H208.24V73.6787H207.537C206.697 73.6787 206.102 73.9326 205.75 74.4404C205.535 74.7529 205.428 75.4658 205.428 76.5791V93.3223H204.9L191.805 77.3262V89.5576C191.805 90.7783 191.937 91.54 192.2 91.8428C192.571 92.2529 193.143 92.458 193.914 92.458H194.617V93H187.703V92.458H188.392C189.241 92.458 189.842 92.2041 190.193 91.6963C190.408 91.3838 190.516 90.6709 190.516 89.5576V75.7441C189.939 75.0703 189.5 74.626 189.197 74.4111C188.904 74.1963 188.47 73.9961 187.894 73.8105C187.61 73.7227 187.181 73.6787 186.604 73.6787V73.1367Z" fill="white"/>
</svg>
