 <svg width="373" height="56" viewBox="0 0 373 56" fill="none"
        xmlns="http://www.w3.org/2000/svg">
        <path
          d="M0 36V0.599998H1.8V36H0ZM3.6 36V0.599998H9V36H3.6ZM10.8 36V0.599998H16.2V36H10.8ZM18 36V0.599998H19.8V36H18ZM25.2 36V0.599998H27V36H25.2ZM10.14 41.22H14.58C16.06 41.22 17.16 41.6 17.88 42.36C18.64 43.08 19.02 44.02 19.02 45.18C19.02 46.3 18.66 47.22 17.94 47.94C17.22 48.66 16.14 49.02 14.7 49.02H11.76V55.14H10.14V41.22ZM14.52 47.64C15.52 47.64 16.24 47.42 16.68 46.98C17.16 46.58 17.4 46 17.4 45.24C17.4 44.48 17.16 43.88 16.68 43.44C16.2 42.96 15.5 42.72 14.58 42.72H11.76V47.64H14.52ZM28.8281 36V0.599998H34.2281V36H28.8281ZM39.6281 36V0.599998H41.4281V36H39.6281ZM43.2281 36V0.599998H45.0281V36H43.2281ZM46.8281 36V0.599998H48.6281V36H46.8281ZM50.4281 36V0.599998H55.8281V36H50.4281ZM43.2281 55.38C41.7881 55.38 40.6881 54.94 39.9281 54.06C39.1681 53.18 38.7881 51.94 38.7881 50.34V41.22H40.5281V41.4C40.4081 41.48 40.3481 41.58 40.3481 41.7C40.3081 41.78 40.2881 41.96 40.2881 42.24V50.34C40.2881 51.54 40.5281 52.46 41.0081 53.1C41.4481 53.74 42.2081 54.06 43.2881 54.06C44.3281 54.06 45.0881 53.74 45.5681 53.1C46.0481 52.46 46.2881 51.52 46.2881 50.28V41.22H47.7881V50.28C47.7881 52 47.3881 53.28 46.5881 54.12C45.7881 54.96 44.6681 55.38 43.2281 55.38ZM57.6562 36V0.599998H63.0563V36H57.6562ZM64.8563 36V0.599998H70.2563V36H64.8563ZM72.0563 36V0.599998H73.8563V36H72.0563ZM75.6563 36V0.599998H77.4563V36H75.6563ZM82.8563 36V0.599998H84.6563V36H82.8563ZM67.3763 41.22H68.6363L72.0563 48.06L75.5363 41.22H76.7363V55.14H75.2363V44.64L72.2363 50.28H71.6363L68.8163 44.7V55.14H67.3763V41.22ZM86.4844 36V0.599998H88.2844V36H86.4844ZM90.0844 36V0.599998H95.4844V36H90.0844ZM97.2844 36V0.599998H102.684V36H97.2844ZM104.484 36V0.599998H106.284V36H104.484ZM111.684 36V0.599998H113.484V36H111.684ZM96.6244 41.22H101.064C102.544 41.22 103.644 41.6 104.364 42.36C105.124 43.08 105.504 44.02 105.504 45.18C105.504 46.3 105.144 47.22 104.424 47.94C103.704 48.66 102.624 49.02 101.184 49.02H98.2444V55.14H96.6244V41.22ZM101.004 47.64C102.004 47.64 102.724 47.42 103.164 46.98C103.644 46.58 103.884 46 103.884 45.24C103.884 44.48 103.644 43.88 103.164 43.44C102.684 42.96 101.984 42.72 101.064 42.72H98.2444V47.64H101.004ZM115.312 36V0.599998H117.113V36H115.312ZM118.913 36V0.599998H124.313V36H118.913ZM126.113 36V0.599998H127.913V36H126.113ZM129.713 36V0.599998H135.113V36H129.713ZM140.513 36V0.599998H142.313V36H140.513ZM129.653 55.38C127.853 55.38 126.393 54.78 125.273 53.58L126.113 52.2L126.173 52.02L126.353 52.08C126.353 52.12 126.373 52.2 126.413 52.32C126.413 52.4 126.453 52.5 126.533 52.62C126.573 52.7 126.653 52.78 126.773 52.86C127.613 53.58 128.653 53.94 129.893 53.94C130.693 53.94 131.373 53.72 131.933 53.28C132.493 52.8 132.773 52.24 132.773 51.6C132.773 51.16 132.673 50.78 132.473 50.46C132.313 50.18 132.013 49.9 131.573 49.62C131.133 49.34 130.453 49 129.533 48.6C128.173 48.08 127.193 47.48 126.593 46.8C126.033 46.12 125.753 45.36 125.753 44.52C125.753 43.48 126.133 42.64 126.893 42C127.653 41.36 128.673 41.04 129.953 41.04C130.713 41.04 131.433 41.2 132.113 41.52C132.753 41.84 133.333 42.26 133.853 42.78L132.833 44.16L132.713 44.04C132.713 44 132.693 43.94 132.653 43.86C132.653 43.74 132.613 43.64 132.533 43.56C132.493 43.44 132.413 43.34 132.293 43.26C131.973 42.94 131.593 42.7 131.152 42.54C130.753 42.42 130.273 42.36 129.713 42.36C128.993 42.36 128.433 42.56 128.033 42.96C127.593 43.36 127.373 43.84 127.373 44.4C127.373 44.84 127.453 45.22 127.613 45.54C127.813 45.86 128.153 46.16 128.633 46.44C129.113 46.76 129.833 47.1 130.793 47.46C132.113 48.02 133.033 48.58 133.553 49.14C134.033 49.74 134.273 50.48 134.273 51.36C134.273 52.04 134.113 52.68 133.793 53.28C133.433 53.88 132.913 54.38 132.233 54.78C131.513 55.18 130.653 55.38 129.653 55.38ZM144.141 36V0.599998H145.941V36H144.141ZM147.741 36V0.599998H149.541V36H147.741ZM151.341 36V0.599998H156.741V36H151.341ZM158.541 36V0.599998H163.941V36H158.541ZM169.341 36V0.599998H171.141V36H169.341ZM157.581 42.6H153.681V41.22H163.281V42.6H159.201V55.14H157.581V42.6ZM172.969 36V0.599998H178.369V36H172.969ZM180.169 36V0.599998H181.969V36H180.169ZM183.769 36V0.599998H185.569V36H183.769ZM190.969 36V0.599998H192.769V36H190.969ZM194.569 36V0.599998H199.969V36H194.569ZM189.589 51.06H185.089L183.709 55.14H182.149L187.249 40.98H187.429L192.589 55.14H190.969L189.589 51.06ZM189.169 49.86L187.369 44.58L185.509 49.86H189.169ZM201.797 36V0.599998H203.597V36H201.797ZM205.397 36V0.599998H207.197V36H205.397ZM208.997 36V0.599998H214.397V36H208.997ZM216.197 36V0.599998H221.597V36H216.197ZM226.997 36V0.599998H228.797V36H226.997ZM215.237 42.6H211.337V41.22H220.937V42.6H216.857V55.14H215.237V42.6ZM230.625 36V0.599998H232.425V36H230.625ZM234.225 36V0.599998H239.625V36H234.225ZM241.425 36V0.599998H243.225V36H241.425ZM245.025 36V0.599998H250.425V36H245.025ZM255.825 36V0.599998H257.625V36H255.825ZM244.965 55.38C243.165 55.38 241.705 54.78 240.585 53.58L241.425 52.2L241.485 52.02L241.665 52.08C241.665 52.12 241.685 52.2 241.725 52.32C241.725 52.4 241.765 52.5 241.845 52.62C241.885 52.7 241.965 52.78 242.085 52.86C242.925 53.58 243.965 53.94 245.205 53.94C246.005 53.94 246.685 53.72 247.245 53.28C247.805 52.8 248.085 52.24 248.085 51.6C248.085 51.16 247.985 50.78 247.785 50.46C247.625 50.18 247.325 49.9 246.885 49.62C246.445 49.34 245.765 49 244.845 48.6C243.485 48.08 242.505 47.48 241.905 46.8C241.345 46.12 241.065 45.36 241.065 44.52C241.065 43.48 241.445 42.64 242.205 42C242.965 41.36 243.985 41.04 245.265 41.04C246.025 41.04 246.745 41.2 247.425 41.52C248.065 41.84 248.645 42.26 249.165 42.78L248.145 44.16L248.025 44.04C248.025 44 248.005 43.94 247.965 43.86C247.965 43.74 247.925 43.64 247.845 43.56C247.805 43.44 247.725 43.34 247.605 43.26C247.285 42.94 246.905 42.7 246.465 42.54C246.065 42.42 245.585 42.36 245.025 42.36C244.305 42.36 243.745 42.56 243.345 42.96C242.905 43.36 242.685 43.84 242.685 44.4C242.685 44.84 242.765 45.22 242.925 45.54C243.125 45.86 243.465 46.16 243.945 46.44C244.425 46.76 245.145 47.1 246.105 47.46C247.425 48.02 248.345 48.58 248.865 49.14C249.345 49.74 249.585 50.48 249.585 51.36C249.585 52.04 249.425 52.68 249.105 53.28C248.745 53.88 248.225 54.38 247.545 54.78C246.825 55.18 245.965 55.38 244.965 55.38ZM259.453 36V0.599998H264.853V36H259.453ZM270.253 36V0.599998H272.053V36H270.253ZM273.853 36V0.599998H275.653V36H273.853ZM277.453 36V0.599998H282.853V36H277.453ZM284.653 36V0.599998H286.453V36H284.653ZM273.553 55.38C273.233 55.38 272.933 55.26 272.653 55.02C272.413 54.74 272.293 54.44 272.293 54.12C272.293 53.76 272.413 53.46 272.653 53.22C272.933 52.98 273.233 52.86 273.553 52.86C273.913 52.86 274.213 52.98 274.453 53.22C274.733 53.46 274.873 53.76 274.873 54.12C274.873 54.44 274.733 54.74 274.453 55.02C274.213 55.26 273.913 55.38 273.553 55.38ZM288.281 36V0.599998H290.081V36H288.281ZM291.881 36V0.599998H297.281V36H291.881ZM299.081 36V0.599998H304.481V36H299.081ZM309.881 36V0.599998H311.681V36H309.881ZM313.481 36V0.599998H315.281V36H313.481ZM298.841 41.22H306.821V42.6H300.401V46.98H305.621V48.3H300.401V55.14H298.841V41.22ZM317.109 36V0.599998H322.509V36H317.109ZM327.909 36V0.599998H329.709V36H327.909ZM331.509 36V0.599998H333.309V36H331.509ZM335.109 36V0.599998H336.909V36H335.109ZM338.709 36V0.599998H344.109V36H338.709ZM331.509 55.38C330.069 55.38 328.969 54.94 328.209 54.06C327.449 53.18 327.069 51.94 327.069 50.34V41.22H328.809V41.4C328.689 41.48 328.629 41.58 328.629 41.7C328.589 41.78 328.569 41.96 328.569 42.24V50.34C328.569 51.54 328.809 52.46 329.289 53.1C329.729 53.74 330.489 54.06 331.569 54.06C332.609 54.06 333.369 53.74 333.849 53.1C334.329 52.46 334.569 51.52 334.569 50.28V41.22H336.069V50.28C336.069 52 335.669 53.28 334.869 54.12C334.069 54.96 332.949 55.38 331.509 55.38ZM345.938 36V0.599998H347.738V36H345.938ZM349.538 36V0.599998H351.338V36H349.538ZM353.138 36V0.599998H358.538V36H353.138ZM360.338 36V0.599998H362.138V36H360.338ZM367.538 36V0.599998H372.938V36H367.538ZM355.898 41.22H357.398L363.218 51.54V41.22H364.958V41.4C364.838 41.48 364.778 41.58 364.778 41.7C364.738 41.78 364.718 41.96 364.718 42.24V55.14H363.518L357.338 44.22V55.14H355.898V41.22Z"
          fill="white" />
      </svg>