<svg width="25" height="25" viewBox="0 0 25 25" fill="none" xmlns="http://www.w3.org/2000/svg">
        <path
          d="M20.1146 4.88646C19.5825 4.35417 18.9508 3.93192 18.2556 3.64384C17.5603 3.35575 16.8151 3.20747 16.0625 3.20747C15.3099 3.20747 14.5647 3.35575 13.8694 3.64384C13.1742 3.93192 12.5425 4.35417 12.0104 4.88646L4.88542 12.0115C4.08379 12.8127 3.53784 13.8337 3.31662 14.9453C3.0954 16.0569 3.20886 17.2092 3.64264 18.2563C4.07643 19.3034 4.81104 20.1983 5.75355 20.8278C6.69606 21.4573 7.8041 21.7931 8.9375 21.7927C10.4567 21.7909 11.9135 21.188 12.9896 20.1156L20.1146 12.9906C20.6469 12.4586 21.0691 11.8269 21.3572 11.1316C21.6453 10.4364 21.7936 9.69113 21.7936 8.93854C21.7936 8.18595 21.6453 7.44073 21.3572 6.74546C21.0691 6.05019 20.6469 5.4185 20.1146 4.88646ZM19.375 12.251L15.8125 15.8135L9.1875 9.18854L12.75 5.625C13.4049 4.97089 14.2388 4.52532 15.1466 4.34446C16.0544 4.1636 16.9954 4.25554 17.851 4.60869C18.7066 4.96185 19.4385 5.56041 19.9544 6.32892C20.4703 7.09742 20.7471 8.00147 20.75 8.92708C20.755 9.54497 20.6359 10.1576 20.3997 10.7286C20.1635 11.2995 19.8151 11.8173 19.375 12.251Z"
          fill="white" />
      </svg>