 <svg width="35" height="35" viewBox="0 0 35 35" fill="none" xmlns="http://www.w3.org/2000/svg">
        <g filter="url(#filter0_d_217_72)">
          <path d="M15.1406 23.2619L15.3414 18.8571L17.4498 20.6429L15.1406 23.2619Z" fill="white" />
          <path d="M12.3293 15.881L13.8353 20.6429L14.2369 17.0714L21.0643 9.45238L12.3293 15.881Z" fill="white" />
          <path
            d="M30 2.30952L25.8835 25.1667L24.9799 26H23.8755L18.6546 21.5952L15.1406 25.4048H14.2369L11.1245 16.119L5 13.5V11.8333L28.494 1C29.4948 1.30921 29.7896 1.49319 30 1.83333M15.3414 18.8571L15.1406 23.2619L17.4498 20.6429L15.3414 18.8571ZM13.8353 20.6429L12.3293 15.881L21.0643 9.45238L14.2369 17.0714L13.8353 20.6429Z"
            stroke="white" stroke-width="0.5" />
        </g>
        <defs>
          <filter id="filter0_d_217_72" x="0.75" y="0.732864" width="33.496" height="33.5171"
            filterUnits="userSpaceOnUse" color-interpolation-filters="sRGB">
            <feFlood flood-opacity="0" result="BackgroundImageFix" />
            <feColorMatrix in="SourceAlpha" type="matrix" values="0 0 0 0 0 0 0 0 0 0 0 0 0 0 0 0 0 0 127 0"
              result="hardAlpha" />
            <feOffset dy="4" />
            <feGaussianBlur stdDeviation="2" />
            <feComposite in2="hardAlpha" operator="out" />
            <feColorMatrix type="matrix" values="0 0 0 0 0 0 0 0 0 0 0 0 0 0 0 0 0 0 0.25 0" />
            <feBlend mode="normal" in2="BackgroundImageFix" result="effect1_dropShadow_217_72" />
            <feBlend mode="normal" in="SourceGraphic" in2="effect1_dropShadow_217_72" result="shape" />
          </filter>
        </defs>
      </svg>